<?xml version="1.0" encoding="utf-8"?>
<!-- Generator: Adobe Illustrator 16.2.0, SVG Export Plug-In . SVG Version: 6.00 Build 0)  -->
<!DOCTYPE svg PUBLIC "-//W3C//DTD SVG 1.1//EN" "http://www.w3.org/Graphics/SVG/1.1/DTD/svg11.dtd">
<svg version="1.1" id="Слой_1" xmlns="http://www.w3.org/2000/svg" xmlns:xlink="http://www.w3.org/1999/xlink" x="0px" y="0px"
	 width="17.959px" height="21px" viewBox="0 0 17.959 21" enable-background="new 0 0 17.959 21" xml:space="preserve">
<g>
	<defs>
		<path id="SVGID_1_" d="M5.337,0.442l12.047,5.653c0.5,0.234,0.715,0.83,0.48,1.33c-0.099,0.211-0.269,0.381-0.48,0.48
			L5.337,13.558c-0.5,0.234-1.095,0.019-1.33-0.481c-0.062-0.133-0.095-0.278-0.095-0.425V1.348c0-0.553,0.448-1,1-1
			C5.059,0.348,5.204,0.38,5.337,0.442z"/>
	</defs>
	<clipPath id="SVGID_2_">
		<use xlink:href="#SVGID_1_"  overflow="visible"/>
	</clipPath>
	<g clip-path="url(#SVGID_2_)">
		<defs>
			<rect id="SVGID_3_" x="-116" y="-732" width="1440" height="1807"/>
		</defs>
		<clipPath id="SVGID_4_">
			<use xlink:href="#SVGID_3_"  overflow="visible"/>
		</clipPath>
		<g clip-path="url(#SVGID_4_)">
			<path fill="#212B60" d="M4.913,15.652c-1.158,0-2.224-0.677-2.716-1.726c-0.187-0.399-0.284-0.838-0.284-1.274V1.348
				c0-1.654,1.346-3,3-3c0.438,0,0.879,0.099,1.276,0.285l12.045,5.651c1.497,0.702,2.144,2.492,1.442,3.989
				c-0.297,0.633-0.808,1.144-1.439,1.441l-12.05,5.654C5.784,15.557,5.356,15.652,4.913,15.652z M5.913,2.922v8.156L14.605,7
				L5.913,2.922z"/>
		</g>
	</g>
</g>
<g>
	<defs>
		<path id="SVGID_5_" d="M1,0L1,0c0.552,0,1,0.448,1,1v19c0,0.552-0.448,1-1,1s-1-0.448-1-1V1C0,0.448,0.448,0,1,0z"/>
	</defs>
	<clipPath id="SVGID_6_">
		<use xlink:href="#SVGID_5_"  overflow="visible"/>
	</clipPath>
	<g clip-path="url(#SVGID_6_)">
		<defs>
			<rect id="SVGID_7_" x="-116" y="-732" width="1440" height="1807"/>
		</defs>
		<clipPath id="SVGID_8_">
			<use xlink:href="#SVGID_7_"  overflow="visible"/>
		</clipPath>
		<g clip-path="url(#SVGID_8_)">
			<rect x="-5" y="-5" fill="#212B60" width="12" height="31"/>
		</g>
	</g>
</g>
</svg>
