<?xml version="1.0" encoding="utf-8"?>
<!-- Generator: Adobe Illustrator 16.2.0, SVG Export Plug-In . SVG Version: 6.00 Build 0)  -->
<!DOCTYPE svg PUBLIC "-//W3C//DTD SVG 1.1//EN" "http://www.w3.org/Graphics/SVG/1.1/DTD/svg11.dtd">
<svg version="1.1" id="Слой_1" xmlns="http://www.w3.org/2000/svg" xmlns:xlink="http://www.w3.org/1999/xlink" x="0px" y="0px"
	 width="20px" height="21px" viewBox="0 0 20 21" enable-background="new 0 0 20 21" xml:space="preserve">
<g>
	<defs>
		<path id="SVGID_1_" d="M1,0L1,0c0.553,0,1,0.448,1,1v19c0,0.552-0.447,1-1,1s-1-0.448-1-1V1C0,0.448,0.447,0,1,0z"/>
	</defs>
	<clipPath id="SVGID_2_">
		<use xlink:href="#SVGID_1_"  overflow="visible"/>
	</clipPath>
	<g clip-path="url(#SVGID_2_)">
		<defs>
			<rect id="SVGID_3_" x="-993" y="-733" width="1440" height="1807"/>
		</defs>
		<clipPath id="SVGID_4_">
			<use xlink:href="#SVGID_3_"  overflow="visible"/>
		</clipPath>
		<g clip-path="url(#SVGID_4_)">
			<rect x="-5" y="-5" fill="#FFFFFF" width="12" height="31"/>
		</g>
	</g>
</g>
<g>
	<defs>
		<rect id="SVGID_5_" x="4" y="2" width="2" height="2"/>
	</defs>
	<clipPath id="SVGID_6_">
		<use xlink:href="#SVGID_5_"  overflow="visible"/>
	</clipPath>
	<g clip-path="url(#SVGID_6_)">
		<defs>
			<rect id="SVGID_7_" x="-993" y="-733" width="1440" height="1807"/>
		</defs>
		<clipPath id="SVGID_8_">
			<use xlink:href="#SVGID_7_"  overflow="visible"/>
		</clipPath>
		<g clip-path="url(#SVGID_8_)">
			<rect x="-1" y="-3" fill="#FFFFFF" width="12" height="12"/>
		</g>
	</g>
</g>
<g>
	<defs>
		<rect id="SVGID_9_" x="8" y="2" width="2" height="2"/>
	</defs>
	<clipPath id="SVGID_10_">
		<use xlink:href="#SVGID_9_"  overflow="visible"/>
	</clipPath>
	<g clip-path="url(#SVGID_10_)">
		<defs>
			<rect id="SVGID_11_" x="-993" y="-733" width="1440" height="1807"/>
		</defs>
		<clipPath id="SVGID_12_">
			<use xlink:href="#SVGID_11_"  overflow="visible"/>
		</clipPath>
		<g clip-path="url(#SVGID_12_)">
			<rect x="3" y="-3" fill="#FFFFFF" width="12" height="12"/>
		</g>
	</g>
</g>
<g>
	<defs>
		<rect id="SVGID_13_" x="12" y="2" width="2" height="2"/>
	</defs>
	<clipPath id="SVGID_14_">
		<use xlink:href="#SVGID_13_"  overflow="visible"/>
	</clipPath>
	<g clip-path="url(#SVGID_14_)">
		<defs>
			<rect id="SVGID_15_" x="-993" y="-733" width="1440" height="1807"/>
		</defs>
		<clipPath id="SVGID_16_">
			<use xlink:href="#SVGID_15_"  overflow="visible"/>
		</clipPath>
		<g clip-path="url(#SVGID_16_)">
			<rect x="7" y="-3" fill="#FFFFFF" width="12" height="12"/>
		</g>
	</g>
</g>
<g>
	<defs>
		<rect id="SVGID_17_" x="16" y="2" width="2" height="2"/>
	</defs>
	<clipPath id="SVGID_18_">
		<use xlink:href="#SVGID_17_"  overflow="visible"/>
	</clipPath>
	<g clip-path="url(#SVGID_18_)">
		<defs>
			<rect id="SVGID_19_" x="-993" y="-733" width="1440" height="1807"/>
		</defs>
		<clipPath id="SVGID_20_">
			<use xlink:href="#SVGID_19_"  overflow="visible"/>
		</clipPath>
		<g clip-path="url(#SVGID_20_)">
			<rect x="11" y="-3" fill="#FFFFFF" width="12" height="12"/>
		</g>
	</g>
</g>
<g>
	<defs>
		<rect id="SVGID_21_" x="6" y="4" width="2" height="2"/>
	</defs>
	<clipPath id="SVGID_22_">
		<use xlink:href="#SVGID_21_"  overflow="visible"/>
	</clipPath>
	<g clip-path="url(#SVGID_22_)">
		<defs>
			<rect id="SVGID_23_" x="-993" y="-733" width="1440" height="1807"/>
		</defs>
		<clipPath id="SVGID_24_">
			<use xlink:href="#SVGID_23_"  overflow="visible"/>
		</clipPath>
		<g clip-path="url(#SVGID_24_)">
			<rect x="1" y="-1" fill="#FFFFFF" width="12" height="12"/>
		</g>
	</g>
</g>
<g>
	<defs>
		<rect id="SVGID_25_" x="10" y="4" width="2" height="2"/>
	</defs>
	<clipPath id="SVGID_26_">
		<use xlink:href="#SVGID_25_"  overflow="visible"/>
	</clipPath>
	<g clip-path="url(#SVGID_26_)">
		<defs>
			<rect id="SVGID_27_" x="-993" y="-733" width="1440" height="1807"/>
		</defs>
		<clipPath id="SVGID_28_">
			<use xlink:href="#SVGID_27_"  overflow="visible"/>
		</clipPath>
		<g clip-path="url(#SVGID_28_)">
			<rect x="5" y="-1" fill="#FFFFFF" width="12" height="12"/>
		</g>
	</g>
</g>
<g>
	<defs>
		<rect id="SVGID_29_" x="14" y="4" width="2" height="2"/>
	</defs>
	<clipPath id="SVGID_30_">
		<use xlink:href="#SVGID_29_"  overflow="visible"/>
	</clipPath>
	<g clip-path="url(#SVGID_30_)">
		<defs>
			<rect id="SVGID_31_" x="-993" y="-733" width="1440" height="1807"/>
		</defs>
		<clipPath id="SVGID_32_">
			<use xlink:href="#SVGID_31_"  overflow="visible"/>
		</clipPath>
		<g clip-path="url(#SVGID_32_)">
			<rect x="9" y="-1" fill="#FFFFFF" width="12" height="12"/>
		</g>
	</g>
</g>
<g>
	<defs>
		<rect id="SVGID_33_" x="18" y="4" width="2" height="2"/>
	</defs>
	<clipPath id="SVGID_34_">
		<use xlink:href="#SVGID_33_"  overflow="visible"/>
	</clipPath>
	<g clip-path="url(#SVGID_34_)">
		<defs>
			<rect id="SVGID_35_" x="-993" y="-733" width="1440" height="1807"/>
		</defs>
		<clipPath id="SVGID_36_">
			<use xlink:href="#SVGID_35_"  overflow="visible"/>
		</clipPath>
		<g clip-path="url(#SVGID_36_)">
			<rect x="13" y="-1" fill="#FFFFFF" width="12" height="12"/>
		</g>
	</g>
</g>
<g>
	<defs>
		<rect id="SVGID_37_" x="4" y="6" width="2" height="2"/>
	</defs>
	<clipPath id="SVGID_38_">
		<use xlink:href="#SVGID_37_"  overflow="visible"/>
	</clipPath>
	<g clip-path="url(#SVGID_38_)">
		<defs>
			<rect id="SVGID_39_" x="-993" y="-733" width="1440" height="1807"/>
		</defs>
		<clipPath id="SVGID_40_">
			<use xlink:href="#SVGID_39_"  overflow="visible"/>
		</clipPath>
		<g clip-path="url(#SVGID_40_)">
			<rect x="-1" y="1" fill="#FFFFFF" width="12" height="12"/>
		</g>
	</g>
</g>
<g>
	<defs>
		<rect id="SVGID_41_" x="8" y="6" width="2" height="2"/>
	</defs>
	<clipPath id="SVGID_42_">
		<use xlink:href="#SVGID_41_"  overflow="visible"/>
	</clipPath>
	<g clip-path="url(#SVGID_42_)">
		<defs>
			<rect id="SVGID_43_" x="-993" y="-733" width="1440" height="1807"/>
		</defs>
		<clipPath id="SVGID_44_">
			<use xlink:href="#SVGID_43_"  overflow="visible"/>
		</clipPath>
		<g clip-path="url(#SVGID_44_)">
			<rect x="3" y="1" fill="#FFFFFF" width="12" height="12"/>
		</g>
	</g>
</g>
<g>
	<defs>
		<rect id="SVGID_45_" x="12" y="6" width="2" height="2"/>
	</defs>
	<clipPath id="SVGID_46_">
		<use xlink:href="#SVGID_45_"  overflow="visible"/>
	</clipPath>
	<g clip-path="url(#SVGID_46_)">
		<defs>
			<rect id="SVGID_47_" x="-993" y="-733" width="1440" height="1807"/>
		</defs>
		<clipPath id="SVGID_48_">
			<use xlink:href="#SVGID_47_"  overflow="visible"/>
		</clipPath>
		<g clip-path="url(#SVGID_48_)">
			<rect x="7" y="1" fill="#FFFFFF" width="12" height="12"/>
		</g>
	</g>
</g>
<g>
	<defs>
		<rect id="SVGID_49_" x="16" y="6" width="2" height="2"/>
	</defs>
	<clipPath id="SVGID_50_">
		<use xlink:href="#SVGID_49_"  overflow="visible"/>
	</clipPath>
	<g clip-path="url(#SVGID_50_)">
		<defs>
			<rect id="SVGID_51_" x="-993" y="-733" width="1440" height="1807"/>
		</defs>
		<clipPath id="SVGID_52_">
			<use xlink:href="#SVGID_51_"  overflow="visible"/>
		</clipPath>
		<g clip-path="url(#SVGID_52_)">
			<rect x="11" y="1" fill="#FFFFFF" width="12" height="12"/>
		</g>
	</g>
</g>
<g>
	<defs>
		<rect id="SVGID_53_" x="6" y="8" width="2" height="2"/>
	</defs>
	<clipPath id="SVGID_54_">
		<use xlink:href="#SVGID_53_"  overflow="visible"/>
	</clipPath>
	<g clip-path="url(#SVGID_54_)">
		<defs>
			<rect id="SVGID_55_" x="-993" y="-733" width="1440" height="1807"/>
		</defs>
		<clipPath id="SVGID_56_">
			<use xlink:href="#SVGID_55_"  overflow="visible"/>
		</clipPath>
		<g clip-path="url(#SVGID_56_)">
			<rect x="1" y="3" fill="#FFFFFF" width="12" height="12"/>
		</g>
	</g>
</g>
<g>
	<defs>
		<rect id="SVGID_57_" x="10" y="8" width="2" height="2"/>
	</defs>
	<clipPath id="SVGID_58_">
		<use xlink:href="#SVGID_57_"  overflow="visible"/>
	</clipPath>
	<g clip-path="url(#SVGID_58_)">
		<defs>
			<rect id="SVGID_59_" x="-993" y="-733" width="1440" height="1807"/>
		</defs>
		<clipPath id="SVGID_60_">
			<use xlink:href="#SVGID_59_"  overflow="visible"/>
		</clipPath>
		<g clip-path="url(#SVGID_60_)">
			<rect x="5" y="3" fill="#FFFFFF" width="12" height="12"/>
		</g>
	</g>
</g>
<g>
	<defs>
		<rect id="SVGID_61_" x="14" y="8" width="2" height="2"/>
	</defs>
	<clipPath id="SVGID_62_">
		<use xlink:href="#SVGID_61_"  overflow="visible"/>
	</clipPath>
	<g clip-path="url(#SVGID_62_)">
		<defs>
			<rect id="SVGID_63_" x="-993" y="-733" width="1440" height="1807"/>
		</defs>
		<clipPath id="SVGID_64_">
			<use xlink:href="#SVGID_63_"  overflow="visible"/>
		</clipPath>
		<g clip-path="url(#SVGID_64_)">
			<rect x="9" y="3" fill="#FFFFFF" width="12" height="12"/>
		</g>
	</g>
</g>
<g>
	<defs>
		<rect id="SVGID_65_" x="18" y="8" width="2" height="2"/>
	</defs>
	<clipPath id="SVGID_66_">
		<use xlink:href="#SVGID_65_"  overflow="visible"/>
	</clipPath>
	<g clip-path="url(#SVGID_66_)">
		<defs>
			<rect id="SVGID_67_" x="-993" y="-733" width="1440" height="1807"/>
		</defs>
		<clipPath id="SVGID_68_">
			<use xlink:href="#SVGID_67_"  overflow="visible"/>
		</clipPath>
		<g clip-path="url(#SVGID_68_)">
			<rect x="13" y="3" fill="#FFFFFF" width="12" height="12"/>
		</g>
	</g>
</g>
<g>
	<defs>
		<path id="SVGID_69_" d="M5,0h14c0.552,0,1,0.448,1,1v10c0,0.552-0.448,1-1,1H5c-0.553,0-1-0.448-1-1V1C4,0.448,4.447,0,5,0z"/>
	</defs>
	<clipPath id="SVGID_70_">
		<use xlink:href="#SVGID_69_"  overflow="visible"/>
	</clipPath>
	<g clip-path="url(#SVGID_70_)">
		<defs>
			<rect id="SVGID_71_" x="-993" y="-733" width="1440" height="1807"/>
		</defs>
		<clipPath id="SVGID_72_">
			<use xlink:href="#SVGID_71_"  overflow="visible"/>
		</clipPath>
		<g clip-path="url(#SVGID_72_)">
			<path fill="#FFFFFF" d="M19,14H5c-1.654,0-3-1.346-3-3V1c0-1.654,1.346-3,3-3h14c1.654,0,3,1.346,3,3v10
				C22,12.654,20.654,14,19,14z M6,10h12V2H6V10z"/>
		</g>
	</g>
</g>
</svg>
