<?xml version="1.0" encoding="utf-8"?>
<!-- Generator: Adobe Illustrator 22.0.1, SVG Export Plug-In . SVG Version: 6.00 Build 0)  -->
<svg version="1.1" id="Layer_1" xmlns="http://www.w3.org/2000/svg" xmlns:xlink="http://www.w3.org/1999/xlink" x="0px" y="0px"
	 viewBox="0 0 22 22" style="enable-background:new 0 0 22 22;" xml:space="preserve" width="22px" height="22px">
<style type="text/css">
	.st0{fill:#FFFFFF;stroke:#212B60;stroke-width:0.75;stroke-miterlimit:10;}
</style>
<title>anchor</title>
<desc>Created with Sketch.</desc>
<g id="Page-1">
	<path id="anchor" class="st0" d="M11.8,3.5c0-0.4-0.3-0.8-0.8-0.8c-0.4,0-0.8,0.3-0.8,0.8s0.3,0.8,0.8,0.8
		C11.4,4.3,11.8,3.9,11.8,3.5z M21.6,14.5v4.2c0,0.2-0.1,0.3-0.2,0.4c0,0-0.1,0-0.1,0c-0.1,0-0.2,0-0.3-0.1l-1.1-1.1
		c-1.9,2.2-5.2,3.7-8.9,3.7s-7-1.4-8.9-3.7L1.1,19C1,19,0.9,19.1,0.8,19.1c0,0-0.1,0-0.1,0c-0.1-0.1-0.2-0.2-0.2-0.4v-4.2
		c0-0.2,0.2-0.4,0.4-0.4H5c0.2,0,0.3,0.1,0.4,0.2c0.1,0.1,0,0.3-0.1,0.4L4.1,16c1.1,1.4,3.1,2.5,5.5,2.8v-7.7H7.2
		c-0.4,0-0.8-0.3-0.8-0.8V8.8c0-0.4,0.3-0.8,0.8-0.8h2.3V6.1C8.6,5.6,8,4.7,8,3.5c0-1.7,1.4-3,3-3s3,1.4,3,3c0,1.1-0.6,2.1-1.5,2.6
		v1.9h2.3c0.4,0,0.8,0.3,0.8,0.8v1.5c0,0.4-0.3,0.8-0.8,0.8h-2.3v7.7c2.3-0.3,4.4-1.4,5.5-2.8l-1.2-1.2c-0.1-0.1-0.1-0.3-0.1-0.4
		c0.1-0.1,0.2-0.2,0.4-0.2h4.2C21.5,14.1,21.6,14.3,21.6,14.5z"/>
</g>
</svg>
