<?xml version="1.0" encoding="utf-8"?>
<!-- Generator: Adobe Illustrator 16.2.0, SVG Export Plug-In . SVG Version: 6.00 Build 0)  -->
<!DOCTYPE svg PUBLIC "-//W3C//DTD SVG 1.1//EN" "http://www.w3.org/Graphics/SVG/1.1/DTD/svg11.dtd">
<svg version="1.1" id="Слой_1" xmlns="http://www.w3.org/2000/svg" xmlns:xlink="http://www.w3.org/1999/xlink" x="0px" y="0px"
	 width="30.278px" height="19.035px" viewBox="0 0 30.278 19.035" enable-background="new 0 0 30.278 19.035" xml:space="preserve">
<g>
	<defs>
		<path id="SVGID_1_" d="M23.121,2c-0.276,0-0.5,0.224-0.5,0.5v7c0,0.276,0.224,0.5,0.5,0.5s0.5-0.224,0.5-0.5v-7
			C23.621,2.224,23.397,2,23.121,2z M19.121,2c-0.276,0-0.5,0.224-0.5,0.5v7c0,0.276,0.224,0.5,0.5,0.5s0.5-0.224,0.5-0.5v-7
			C19.621,2.224,19.397,2,19.121,2z M15.121,2c-0.276,0-0.5,0.224-0.5,0.5v7c0,0.276,0.224,0.5,0.5,0.5s0.5-0.224,0.5-0.5v-7
			C15.621,2.224,15.397,2,15.121,2z M11.121,2c-0.276,0-0.5,0.224-0.5,0.5v7c0,0.276,0.224,0.5,0.5,0.5s0.5-0.224,0.5-0.5v-7
			C11.621,2.224,11.397,2,11.121,2z M7.121,2c-0.276,0-0.5,0.224-0.5,0.5v7c0,0.276,0.224,0.5,0.5,0.5s0.5-0.224,0.5-0.5v-7
			C7.621,2.224,7.397,2,7.121,2z M5.856,0h18.529c0.682,0,1.235,0.542,1.235,1.211v9.078c0,0.669-0.553,1.211-1.235,1.211H5.856
			c-0.682,0-1.235-0.542-1.235-1.211V1.211C4.621,0.542,5.174,0,5.856,0z"/>
	</defs>
	<clipPath id="SVGID_2_">
		<use xlink:href="#SVGID_1_"  overflow="visible"/>
	</clipPath>
	<g clip-path="url(#SVGID_2_)">
		<defs>
			<rect id="SVGID_3_" x="-14.379" y="-726" width="360" height="2490"/>
		</defs>
		<clipPath id="SVGID_4_">
			<use xlink:href="#SVGID_3_"  overflow="visible"/>
		</clipPath>
		<rect x="-0.379" y="-5" clip-path="url(#SVGID_4_)" fill="#FFFFFF" width="31" height="21.5"/>
	</g>
</g>
<g>
	<defs>
		<path id="SVGID_5_" d="M27.864,15.914l-1.414,1.414c-0.391,0.391-0.391,1.024,0,1.415c0.39,0.39,1.023,0.39,1.414,0l2.121-2.122
			c0.391-0.39,0.391-1.023,0-1.414l-2.121-2.121c-0.391-0.391-1.024-0.391-1.414,0c-0.391,0.39-0.391,1.023,0,1.414L27.864,15.914z"
			/>
	</defs>
	<clipPath id="SVGID_6_">
		<use xlink:href="#SVGID_5_"  overflow="visible"/>
	</clipPath>
	<g clip-path="url(#SVGID_6_)">
		<defs>
			<rect id="SVGID_7_" x="-14.379" y="-726" width="360" height="2490"/>
		</defs>
		<clipPath id="SVGID_8_">
			<use xlink:href="#SVGID_7_"  overflow="visible"/>
		</clipPath>
		
			<rect x="19.657" y="8.415" transform="matrix(0.7071 0.7071 -0.7071 0.7071 19.2073 -14.5414)" clip-path="url(#SVGID_8_)" fill="#FFFFFF" width="15" height="15"/>
	</g>
</g>
<g>
	<defs>
		<path id="SVGID_9_" d="M2.414,15.914l1.414,1.414c0.391,0.391,0.391,1.024,0,1.415c-0.391,0.39-1.023,0.39-1.414,0l-2.122-2.122
			c-0.39-0.39-0.39-1.023,0-1.414l2.122-2.121c0.391-0.391,1.023-0.391,1.414,0c0.391,0.39,0.391,1.023,0,1.414L2.414,15.914z"/>
	</defs>
	<clipPath id="SVGID_10_">
		<use xlink:href="#SVGID_9_"  overflow="visible"/>
	</clipPath>
	<g clip-path="url(#SVGID_10_)">
		<defs>
			<rect id="SVGID_11_" x="-14.379" y="-726" width="360" height="2490"/>
		</defs>
		<clipPath id="SVGID_12_">
			<use xlink:href="#SVGID_11_"  overflow="visible"/>
		</clipPath>
		
			<rect x="-4.379" y="8.415" transform="matrix(-0.7071 0.7071 -0.7071 -0.7071 16.5815 24.9606)" clip-path="url(#SVGID_12_)" fill="#FFFFFF" width="15" height="14.999"/>
	</g>
</g>
<g>
	<defs>
		<rect id="SVGID_13_" x="8.621" y="15.5" width="2" height="2"/>
	</defs>
	<clipPath id="SVGID_14_">
		<use xlink:href="#SVGID_13_"  overflow="visible"/>
	</clipPath>
	<g clip-path="url(#SVGID_14_)">
		<defs>
			<rect id="SVGID_15_" x="-14.379" y="-726" width="360" height="2490"/>
		</defs>
		<clipPath id="SVGID_16_">
			<use xlink:href="#SVGID_15_"  overflow="visible"/>
		</clipPath>
		<rect x="3.621" y="10.5" clip-path="url(#SVGID_16_)" fill="#FFFFFF" width="12" height="12"/>
	</g>
</g>
<g>
	<defs>
		<rect id="SVGID_17_" x="12.621" y="15.5" width="2" height="2"/>
	</defs>
	<clipPath id="SVGID_18_">
		<use xlink:href="#SVGID_17_"  overflow="visible"/>
	</clipPath>
	<g clip-path="url(#SVGID_18_)">
		<defs>
			<rect id="SVGID_19_" x="-14.379" y="-726" width="360" height="2490"/>
		</defs>
		<clipPath id="SVGID_20_">
			<use xlink:href="#SVGID_19_"  overflow="visible"/>
		</clipPath>
		<rect x="7.621" y="10.5" clip-path="url(#SVGID_20_)" fill="#FFFFFF" width="12" height="12"/>
	</g>
</g>
<g>
	<defs>
		<rect id="SVGID_21_" x="16.621" y="15.5" width="2" height="2"/>
	</defs>
	<clipPath id="SVGID_22_">
		<use xlink:href="#SVGID_21_"  overflow="visible"/>
	</clipPath>
	<g clip-path="url(#SVGID_22_)">
		<defs>
			<rect id="SVGID_23_" x="-14.379" y="-726" width="360" height="2490"/>
		</defs>
		<clipPath id="SVGID_24_">
			<use xlink:href="#SVGID_23_"  overflow="visible"/>
		</clipPath>
		<rect x="11.621" y="10.5" clip-path="url(#SVGID_24_)" fill="#FFFFFF" width="12" height="12"/>
	</g>
</g>
<g>
	<defs>
		<rect id="SVGID_25_" x="20.621" y="15.5" width="2" height="2"/>
	</defs>
	<clipPath id="SVGID_26_">
		<use xlink:href="#SVGID_25_"  overflow="visible"/>
	</clipPath>
	<g clip-path="url(#SVGID_26_)">
		<defs>
			<rect id="SVGID_27_" x="-14.379" y="-726" width="360" height="2490"/>
		</defs>
		<clipPath id="SVGID_28_">
			<use xlink:href="#SVGID_27_"  overflow="visible"/>
		</clipPath>
		<rect x="15.621" y="10.5" clip-path="url(#SVGID_28_)" fill="#FFFFFF" width="12" height="12"/>
	</g>
</g>
</svg>
