<?xml version="1.0" encoding="UTF-8"?>
<svg width="22px" height="22px" viewBox="0 0 22 22" version="1.1" xmlns="http://www.w3.org/2000/svg" xmlns:xlink="http://www.w3.org/1999/xlink">
    <!-- Generator: Sketch 48.2 (47327) - http://www.bohemiancoding.com/sketch -->
    <title>anchor</title>
    <desc>Created with Sketch.</desc>
    <defs></defs>
    <g id="Page-1" stroke="none" stroke-width="1" fill="none" fill-rule="evenodd">
        <path d="M11.7857283,3.28569555 C11.7857283,2.85600754 11.4297011,2.49998033 11.0000131,2.49998033 C10.5703251,2.49998033 10.2142979,2.85600754 10.2142979,3.28569555 C10.2142979,3.71538357 10.5703251,4.07141078 11.0000131,4.07141078 C11.4297011,4.07141078 11.7857283,3.71538357 11.7857283,3.28569555 Z M22.0000262,14.6785663 L22.0000262,19 C22.0000262,19.1595984 21.9018118,19.30692 21.7544902,19.368304 C21.705383,19.3805808 21.6562758,19.3928576 21.6071686,19.3928576 C21.5089542,19.3928576 21.4107398,19.3560272 21.3248022,19.2823664 L20.1830598,18.140624 C18.2556021,20.4609392 14.7935444,21.9464321 11.0000131,21.9464321 C7.20648181,21.9464321 3.74442411,20.4609392 1.81696645,18.140624 L0.675224019,19.2823664 C0.601563217,19.3560272 0.491072014,19.3928576 0.392857611,19.3928576 C0.34375041,19.3928576 0.294643208,19.3805808 0.245536007,19.368304 C0.0982144028,19.30692 0,19.1595984 0,19 L0,14.6785663 C0,14.4575839 0.171875205,14.2857087 0.392857611,14.2857087 L4.71429133,14.2857087 C4.87388974,14.2857087 5.02121134,14.3839231 5.08259534,14.5312447 C5.14397935,14.6785663 5.10714895,14.8381647 4.99665774,14.9609327 L3.76897771,16.1886127 C4.87388974,17.6741056 6.9977762,18.754464 9.42858267,19.0859376 L9.42858267,11.1428478 L7.071437,11.1428478 C6.64174899,11.1428478 6.28572178,10.7868206 6.28572178,10.3571326 L6.28572178,8.78570211 C6.28572178,8.3560141 6.64174899,7.99998689 7.071437,7.99998689 L9.42858267,7.99998689 L9.42858267,5.99886843 C8.49554584,5.45868921 7.85715222,4.45199159 7.85715222,3.28569555 C7.85715222,1.5546667 9.26898426,0.142834663 11.0000131,0.142834663 C12.731042,0.142834663 14.142874,1.5546667 14.142874,3.28569555 C14.142874,4.45199159 13.5044804,5.45868921 12.5714436,5.99886843 L12.5714436,7.99998689 L14.9285892,7.99998689 C15.3582772,7.99998689 15.7143044,8.3560141 15.7143044,8.78570211 L15.7143044,10.3571326 C15.7143044,10.7868206 15.3582772,11.1428478 14.9285892,11.1428478 L12.5714436,11.1428478 L12.5714436,19.0859376 C15.00225,18.754464 17.1261365,17.6741056 18.2310485,16.1886127 L17.0033685,14.9609327 C16.8928773,14.8381647 16.8560469,14.6785663 16.9174309,14.5312447 C16.9788149,14.3839231 17.1261365,14.2857087 17.2857349,14.2857087 L21.6071686,14.2857087 C21.828151,14.2857087 22.0000262,14.4575839 22.0000262,14.6785663 Z" id="anchor" fill="#212B60"></path>
    </g>
</svg>